<svg width="120" height="120" viewBox="0 0 120 120" fill="none" xmlns="http://www.w3.org/2000/svg">
<g id="logo">
<rect id="rectangle" x="23" y="60" width="74" height="43" fill="black"/>
<g id="text">
<path d="M30.8 23.56H36.6V47.4H50.44V53H30.8V23.56ZM54.6047 38.32C54.6047 36.2933 54.9914 34.3733 55.7647 32.56C56.538 30.7467 57.6047 29.1467 58.9647 27.76C60.3514 26.3467 61.9514 25.24 63.7647 24.44C65.578 23.64 67.5247 23.24 69.6047 23.24C71.658 23.24 73.5914 23.64 75.4047 24.44C77.218 25.24 78.818 26.3467 80.2047 27.76C81.618 29.1467 82.7114 30.7467 83.4847 32.56C84.2847 34.3733 84.6847 36.2933 84.6847 38.32C84.6847 40.4 84.2847 42.3467 83.4847 44.16C82.7114 45.9733 81.618 47.5733 80.2047 48.96C78.818 50.32 77.218 51.3867 75.4047 52.16C73.5914 52.9333 71.658 53.32 69.6047 53.32C67.5247 53.32 65.578 52.9333 63.7647 52.16C61.9514 51.3867 60.3514 50.32 58.9647 48.96C57.6047 47.5733 56.538 45.9733 55.7647 44.16C54.9914 42.3467 54.6047 40.4 54.6047 38.32ZM60.6047 38.32C60.6047 39.6267 60.8314 40.8533 61.2847 42C61.7647 43.12 62.418 44.12 63.2447 45C64.098 45.8533 65.0714 46.52 66.1647 47C67.2847 47.48 68.498 47.72 69.8047 47.72C71.058 47.72 72.218 47.48 73.2847 47C74.378 46.52 75.3247 45.8533 76.1247 45C76.9247 44.12 77.5514 43.12 78.0047 42C78.458 40.8533 78.6847 39.6267 78.6847 38.32C78.6847 36.9867 78.4447 35.7467 77.9647 34.6C77.5114 33.4533 76.8714 32.4533 76.0447 31.6C75.2447 30.72 74.298 30.04 73.2047 29.56C72.1114 29.08 70.9247 28.84 69.6447 28.84C68.3647 28.84 67.178 29.08 66.0847 29.56C64.9914 30.04 64.0314 30.72 63.2047 31.6C62.378 32.4533 61.738 33.4533 61.2847 34.6C60.8314 35.7467 60.6047 36.9867 60.6047 38.32Z" fill="black"/>
<path d="M54.68 93.04C54.3333 93.4133 53.7867 93.8 53.04 94.2C52.2933 94.5733 51.4267 94.92 50.44 95.24C49.48 95.56 48.4933 95.8133 47.48 96C46.4667 96.2133 45.5067 96.32 44.6 96.32C42.2 96.32 40.04 95.9733 38.12 95.28C36.2 94.56 34.56 93.5733 33.2 92.32C31.84 91.04 30.8 89.5333 30.08 87.8C29.36 86.0667 29 84.1733 29 82.12C29 79.4267 29.4 77.0933 30.2 75.12C31.0267 73.12 32.1333 71.4667 33.52 70.16C34.9333 68.8267 36.5467 67.84 38.36 67.2C40.2 66.56 42.12 66.24 44.12 66.24C46.0133 66.24 47.7467 66.4533 49.32 66.88C50.8933 67.28 52.2267 67.7867 53.32 68.4L51.44 73.8C50.96 73.5333 50.32 73.2667 49.52 73C48.72 72.7333 47.9067 72.52 47.08 72.36C46.2533 72.1733 45.52 72.08 44.88 72.08C43.28 72.08 41.8667 72.28 40.64 72.68C39.4133 73.08 38.3733 73.68 37.52 74.48C36.6933 75.28 36.0667 76.28 35.64 77.48C35.2133 78.6533 35 80.0267 35 81.6C35 82.9867 35.24 84.24 35.72 85.36C36.2 86.4533 36.8667 87.3867 37.72 88.16C38.6 88.9333 39.6267 89.52 40.8 89.92C42 90.32 43.32 90.52 44.76 90.52C45.5867 90.52 46.3467 90.4667 47.04 90.36C47.7333 90.2267 48.32 90.0267 48.8 89.76V86.2H43.72V80.6H54.68V93.04ZM60.2687 81.32C60.2687 79.2933 60.6554 77.3733 61.4287 75.56C62.2021 73.7467 63.2687 72.1467 64.6287 70.76C66.0154 69.3467 67.6154 68.24 69.4287 67.44C71.2421 66.64 73.1887 66.24 75.2687 66.24C77.3221 66.24 79.2554 66.64 81.0688 67.44C82.8821 68.24 84.4821 69.3467 85.8688 70.76C87.2821 72.1467 88.3754 73.7467 89.1487 75.56C89.9488 77.3733 90.3488 79.2933 90.3488 81.32C90.3488 83.4 89.9488 85.3467 89.1487 87.16C88.3754 88.9733 87.2821 90.5733 85.8688 91.96C84.4821 93.32 82.8821 94.3867 81.0688 95.16C79.2554 95.9333 77.3221 96.32 75.2687 96.32C73.1887 96.32 71.2421 95.9333 69.4287 95.16C67.6154 94.3867 66.0154 93.32 64.6287 91.96C63.2687 90.5733 62.2021 88.9733 61.4287 87.16C60.6554 85.3467 60.2687 83.4 60.2687 81.32ZM66.2687 81.32C66.2687 82.6267 66.4954 83.8533 66.9487 85C67.4287 86.12 68.0821 87.12 68.9087 88C69.7621 88.8533 70.7354 89.52 71.8287 90C72.9487 90.48 74.1621 90.72 75.4687 90.72C76.7221 90.72 77.8821 90.48 78.9488 90C80.0421 89.52 80.9887 88.8533 81.7887 88C82.5888 87.12 83.2154 86.12 83.6688 85C84.1221 83.8533 84.3487 82.6267 84.3487 81.32C84.3487 79.9867 84.1087 78.7467 83.6287 77.6C83.1754 76.4533 82.5354 75.4533 81.7088 74.6C80.9088 73.72 79.9621 73.04 78.8688 72.56C77.7754 72.08 76.5888 71.84 75.3088 71.84C74.0288 71.84 72.8421 72.08 71.7487 72.56C70.6554 73.04 69.6954 73.72 68.8687 74.6C68.0421 75.4533 67.4021 76.4533 66.9487 77.6C66.4954 78.7467 66.2687 79.9867 66.2687 81.32Z" fill="white"/>
</g>
</g>
</svg>
